<svg width="26" height="26" viewBox="0 0 26 26" fill="none" xmlns="http://www.w3.org/2000/svg">
<path fill-rule="evenodd" clip-rule="evenodd" d="M26 13C26 5.8203 20.1797 0 13 0C5.8203 0 0 5.8203 0 13C0 20.1797 5.8203 26 13 26C20.1797 26 26 20.1797 26 13ZM24 13C24 19.0751 19.0751 24 13 24C6.92487 24 2 19.0751 2 13C2 6.92487 6.92487 2 13 2C19.0751 2 24 6.92487 24 13ZM7.42308 14L15.5858 14L13.2929 16.2929C12.9024 16.6834 12.9024 17.3166 13.2929 17.7071C13.6834 18.0976 14.3166 18.0976 14.7071 17.7071L18.7071 13.7071C19.0976 13.3166 19.0976 12.6834 18.7071 12.2929L14.7071 8.29289C14.3166 7.90237 13.6834 7.90237 13.2929 8.29289C12.9024 8.68342 12.9024 9.31658 13.2929 9.70711L15.5858 12L7.42308 12C6.87079 12 6.42308 12.4477 6.42308 13C6.42308 13.5523 6.87079 14 7.42308 14Z" fill="#FF53A6"/>
<path fill-rule="evenodd" clip-rule="evenodd" d="M26 13C26 5.8203 20.1797 0 13 0C5.8203 0 0 5.8203 0 13C0 20.1797 5.8203 26 13 26C20.1797 26 26 20.1797 26 13ZM24 13C24 19.0751 19.0751 24 13 24C6.92487 24 2 19.0751 2 13C2 6.92487 6.92487 2 13 2C19.0751 2 24 6.92487 24 13ZM7.42308 14L15.5858 14L13.2929 16.2929C12.9024 16.6834 12.9024 17.3166 13.2929 17.7071C13.6834 18.0976 14.3166 18.0976 14.7071 17.7071L18.7071 13.7071C19.0976 13.3166 19.0976 12.6834 18.7071 12.2929L14.7071 8.29289C14.3166 7.90237 13.6834 7.90237 13.2929 8.29289C12.9024 8.68342 12.9024 9.31658 13.2929 9.70711L15.5858 12L7.42308 12C6.87079 12 6.42308 12.4477 6.42308 13C6.42308 13.5523 6.87079 14 7.42308 14Z" fill="url(#paint0_linear)"/>
<defs>
<linearGradient id="paint0_linear" x1="27.5543" y1="10.0692" x2="9.58712" y2="-1.24603" gradientUnits="userSpaceOnUse">
<stop stop-color="#FF53A6"/>
<stop offset="1" stop-color="#5426FF"/>
</linearGradient>
</defs>
</svg>
