<svg width="53" height="20" viewBox="0 0 53 20" fill="none" xmlns="http://www.w3.org/2000/svg">
<path fill-rule="evenodd" clip-rule="evenodd" d="M6.41643 3.25505L6.41662 17.8322C6.41664 19.0295 7.37705 20 8.56177 20C9.35088 20 10.0763 19.5622 10.4504 18.8601L14.7431 10.8046C15.3049 9.75053 14.9146 8.43583 13.8716 7.86816C13.559 7.69805 13.2095 7.609 12.8545 7.609H10.9827C10.3843 7.609 9.89926 8.09917 9.89926 8.70384C9.89926 9.30851 10.3843 9.79868 10.9827 9.79868H12.8182L8.58341 17.7454L8.58322 3.16818C8.58321 2.37075 8.14998 1.63771 7.45524 1.25961C6.41216 0.691922 5.1112 1.08624 4.54945 2.14033L0.256475 10.1959C0.0881263 10.5118 0 10.865 0 11.2238C0 12.421 0.960404 13.3916 2.14512 13.3916H4.01689C4.61523 13.3916 5.10029 12.9014 5.10029 12.2967C5.10029 11.6921 4.61523 11.2019 4.01689 11.2019H2.1814L6.41643 3.25505Z" fill="url(#paint0_linear)"/>
<path d="M25.0625 14.165C24.7025 14.165 24.3625 14.12 24.0425 14.03C23.7325 13.94 23.4575 13.8 23.2175 13.61C22.9775 13.42 22.7875 13.18 22.6475 12.89C22.5075 12.59 22.4375 12.235 22.4375 11.825C22.4375 11.365 22.5375 10.975 22.7375 10.655C22.9375 10.335 23.2175 10.075 23.5775 9.875C23.9375 9.675 24.3675 9.53 24.8675 9.44C25.3675 9.35 25.9175 9.305 26.5175 9.305H27.4025V8.99C27.4025 8.52 27.3125 8.165 27.1325 7.925C26.9625 7.675 26.6275 7.55 26.1275 7.55C25.6975 7.55 25.3775 7.65 25.1675 7.85C24.9675 8.05 24.8425 8.32 24.7925 8.66H22.7375C22.7675 8.2 22.8775 7.8 23.0675 7.46C23.2675 7.12 23.5225 6.84 23.8325 6.62C24.1425 6.4 24.5025 6.24 24.9125 6.14C25.3325 6.03 25.7825 5.975 26.2625 5.975C26.7425 5.975 27.1825 6.03 27.5825 6.14C27.9825 6.24 28.3325 6.405 28.6325 6.635C28.9225 6.865 29.1475 7.165 29.3075 7.535C29.4675 7.905 29.5475 8.355 29.5475 8.885V14H27.4325V13.055C27.2025 13.375 26.9025 13.64 26.5325 13.85C26.1725 14.06 25.6825 14.165 25.0625 14.165ZM25.7075 12.65C26.1875 12.65 26.5875 12.53 26.9075 12.29C27.2375 12.04 27.4025 11.695 27.4025 11.255V10.595H26.5625C25.9325 10.595 25.4425 10.675 25.0925 10.835C24.7425 10.995 24.5675 11.285 24.5675 11.705C24.5675 11.995 24.6575 12.225 24.8375 12.395C25.0175 12.565 25.3075 12.65 25.7075 12.65ZM31.65 2.6H33.81V14H31.65V2.6ZM35.2199 6.155H37.5449L39.4199 11.765L41.2799 6.155H43.3799L40.5299 14H38.0849L35.2199 6.155ZM46.625 14.165C46.265 14.165 45.925 14.12 45.605 14.03C45.295 13.94 45.02 13.8 44.78 13.61C44.54 13.42 44.35 13.18 44.21 12.89C44.07 12.59 44 12.235 44 11.825C44 11.365 44.1 10.975 44.3 10.655C44.5 10.335 44.78 10.075 45.14 9.875C45.5 9.675 45.93 9.53 46.43 9.44C46.93 9.35 47.48 9.305 48.08 9.305H48.965V8.99C48.965 8.52 48.875 8.165 48.695 7.925C48.525 7.675 48.19 7.55 47.69 7.55C47.26 7.55 46.94 7.65 46.73 7.85C46.53 8.05 46.405 8.32 46.355 8.66H44.3C44.33 8.2 44.44 7.8 44.63 7.46C44.83 7.12 45.085 6.84 45.395 6.62C45.705 6.4 46.065 6.24 46.475 6.14C46.895 6.03 47.345 5.975 47.825 5.975C48.305 5.975 48.745 6.03 49.145 6.14C49.545 6.24 49.895 6.405 50.195 6.635C50.485 6.865 50.71 7.165 50.87 7.535C51.03 7.905 51.11 8.355 51.11 8.885V14H48.995V13.055C48.765 13.375 48.465 13.64 48.095 13.85C47.735 14.06 47.245 14.165 46.625 14.165ZM47.27 12.65C47.75 12.65 48.15 12.53 48.47 12.29C48.8 12.04 48.965 11.695 48.965 11.255V10.595H48.125C47.495 10.595 47.005 10.675 46.655 10.835C46.305 10.995 46.13 11.285 46.13 11.705C46.13 11.995 46.22 12.225 46.4 12.395C46.58 12.565 46.87 12.65 47.27 12.65Z" fill="black"/>
<defs>
<linearGradient id="paint0_linear" x1="15" y1="20" x2="15" y2="1" gradientUnits="userSpaceOnUse">
<stop stop-color="#FF53A6"/>
<stop offset="1" stop-color="#542DE4"/>
</linearGradient>
</defs>
</svg>
